<?xml version="1.0" encoding="UTF-8"?>
<!DOCTYPE svg PUBLIC "-//W3C//DTD SVG 1.1//EN" "http://www.w3.org/Graphics/SVG/1.1/DTD/svg11.dtd">
<svg version="1.1" xmlns="http://www.w3.org/2000/svg" xmlns:xlink="http://www.w3.org/1999/xlink" x="0" y="0" width="450" height="163" viewBox="0, 0, 450, 163">
  <defs>
    <clipPath id="Clip_1">
      <path d="M260.268,6.801 L392.055,95.739 L176.109,128.319 L44.322,39.381 L260.268,6.801 z"/>
    </clipPath>
  </defs>
  <g id="Layer_1">
    <path d="M146.013,153.627 L43.368,84.354 C35.322,78.918 37.113,73.266 47.373,71.718 L305.619,32.757 C315.879,31.209 330.72,34.359 338.766,39.786 L441.411,109.059 C449.457,114.495 447.666,120.147 437.406,121.695 L179.16,160.656 C168.9,162.204 154.059,159.054 146.013,153.627" fill="#8aff00"/>
    <path d="M413.34,87.036 L393.324,85.776 L391.785,88.647 L305.664,30.525 C297.609,25.08 282.786,21.948 272.526,23.496 L36.942,59.028 L37.833,54.222 L5.235,48.264 C4.092,49.407 2.283,55.797 6.585,65.49 C7.377,67.29 8.394,69.207 9.654,71.223 C12.165,75.219 15.513,78.621 19.428,81.258 C24.351,84.588 31.335,89.304 31.344,89.313 L112.911,144.357 C120.966,149.793 135.807,152.943 146.049,151.395 L382.785,115.665 L382.839,115.665 C385.062,115.458 388.149,115.035 392.397,114.225 L392.505,114.198 C396.105,113.523 400.524,112.56 405.969,111.237 C408.804,110.544 411.009,109.608 412.719,108.51 C423.825,101.319 413.34,87.036 413.34,87.036" fill="#000"/>
    <path d="M413.34,87.036 L413.448,85.38 L392.37,84.057 L391.191,86.253 L306.591,29.148 C303.036,26.754 298.41,24.855 293.424,23.523 C288.447,22.191 283.119,21.444 278.196,21.444 C276.135,21.444 274.146,21.57 272.274,21.858 L38.994,57.048 L39.759,52.89 L4.677,46.482 L4.065,47.094 C3.714,47.445 3.489,47.814 3.282,48.255 C2.967,48.903 2.706,49.695 2.517,50.658 C2.328,51.621 2.211,52.755 2.211,54.042 C2.211,57.201 2.922,61.323 5.073,66.165 C5.901,68.037 6.954,70.026 8.259,72.105 C10.896,76.299 14.406,79.872 18.501,82.635 C20.958,84.3 23.937,86.307 26.295,87.9 C27.483,88.701 28.509,89.394 29.238,89.889 C29.607,90.141 29.904,90.33 30.102,90.474 C30.201,90.537 30.282,90.591 30.336,90.627 L30.39,90.663 L30.408,90.681 L30.417,90.681 L30.669,90.294 L30.408,90.681 L30.417,90.681 L30.669,90.294 L30.408,90.681 L31.317,89.349 L30.399,90.672 L30.408,90.681 L31.317,89.349 L30.399,90.672 L30.408,90.672 L111.984,145.734 C115.539,148.128 120.174,150.027 125.16,151.359 C130.146,152.691 135.474,153.438 140.397,153.438 C142.458,153.438 144.438,153.312 146.301,153.033 L383.028,117.303 L382.785,115.665 L382.785,117.321 L382.992,117.321 C385.278,117.096 388.419,116.664 392.703,115.854 L392.748,115.845 L392.901,115.809 L392.505,114.198 L392.811,115.827 C396.447,115.143 400.893,114.171 406.356,112.839 C409.335,112.119 411.72,111.12 413.61,109.905 L413.637,109.887 L413.619,109.896 C415.752,108.519 417.255,106.827 418.191,105 C419.118,103.173 419.478,101.238 419.478,99.375 C419.469,95.856 418.245,92.58 417.075,90.141 C415.887,87.702 414.717,86.109 414.672,86.055 L414.213,85.425 L413.448,85.38 L413.34,87.036 L412.008,88.008 L412.179,87.882 L412.008,88.008 L412.179,87.882 L412.008,88.008 C412.035,88.044 413.106,89.529 414.141,91.689 C415.185,93.849 416.175,96.693 416.166,99.375 C416.166,100.815 415.896,102.201 415.239,103.497 C414.582,104.784 413.529,106.008 411.819,107.115 L411.828,107.115 C410.307,108.096 408.264,108.969 405.573,109.626 C400.155,110.949 395.763,111.903 392.199,112.578 L392.145,112.587 L391.992,112.623 L392.397,114.225 L392.091,112.605 C387.879,113.397 384.846,113.82 382.677,114.018 L382.839,115.665 L382.839,114.018 L382.659,114.018 L145.806,149.757 C144.132,150.009 142.314,150.135 140.397,150.135 C135.816,150.135 130.731,149.415 126.015,148.155 C121.299,146.904 116.952,145.095 113.838,142.989 L32.271,87.936 L31.344,89.313 L32.289,87.954 L32.271,87.936 C32.199,87.891 25.26,83.211 20.355,79.89 C16.629,77.37 13.443,74.13 11.058,70.341 C9.834,68.388 8.862,66.543 8.097,64.824 C6.117,60.369 5.523,56.706 5.523,54.042 C5.514,52.593 5.694,51.441 5.919,50.631 C6.036,50.226 6.153,49.902 6.261,49.695 C6.306,49.587 6.351,49.515 6.387,49.47 L6.414,49.425 L6.18,49.218 L6.405,49.434 L6.414,49.425 L6.18,49.218 L6.405,49.434 L5.235,48.264 L4.938,49.893 L35.898,55.554 L34.89,61.017 L272.769,25.125 C274.443,24.873 276.279,24.756 278.196,24.756 C282.777,24.747 287.862,25.467 292.569,26.718 C297.285,27.978 301.623,29.787 304.737,31.893 L392.379,91.05 L394.278,87.495 L413.241,88.683 L413.34,87.036 L412.008,88.008 L413.34,87.036" fill="#8aff00"/>
    <path d="M404.304,93.894 L392.055,95.748 L392.037,95.748 L176.109,128.31 L146.049,132.855 C135.807,134.403 120.966,131.253 112.911,125.826 L10.266,56.544 C2.211,51.108 4.011,45.456 14.271,43.908 L44.313,39.381 L86.46,33.027 L260.277,6.801 L260.286,6.801 L272.526,4.956 C282.786,3.408 297.609,6.549 305.664,11.985 L396.591,73.356 L408.309,81.258 C416.364,86.685 414.564,92.337 404.304,93.894" fill="#8aff00"/>
    <path d="M404.304,93.894 L404.052,92.256 L391.803,94.11 L392.055,95.748 L392.055,94.092 L391.911,94.092 L175.857,126.681 L145.806,131.217 C144.132,131.469 142.314,131.595 140.397,131.595 C135.816,131.595 130.731,130.884 126.015,129.624 C121.299,128.364 116.952,126.555 113.838,124.449 L42.729,76.461 L11.193,55.167 C9.609,54.105 8.484,53.052 7.8,52.134 C7.116,51.207 6.882,50.451 6.882,49.884 C6.891,49.488 6.981,49.146 7.215,48.759 C7.566,48.192 8.295,47.535 9.519,46.95 C10.734,46.365 12.417,45.861 14.523,45.546 L44.565,41.019 L86.703,34.665 L260.52,8.43 L260.277,6.801 L260.277,8.457 L260.412,8.457 L272.769,6.594 C274.443,6.342 276.279,6.216 278.196,6.216 C282.786,6.216 287.862,6.927 292.569,8.187 C297.285,9.438 301.623,11.256 304.737,13.362 L395.664,74.724 L407.382,82.635 C408.966,83.697 410.091,84.75 410.775,85.668 C411.459,86.595 411.693,87.351 411.693,87.918 C411.684,88.314 411.594,88.647 411.36,89.034 C411.009,89.61 410.28,90.267 409.056,90.852 C407.841,91.437 406.158,91.941 404.052,92.256 L404.304,93.894 L404.547,95.532 C407.679,95.046 410.154,94.218 411.981,92.985 C412.89,92.373 413.646,91.635 414.177,90.771 C414.708,89.916 415.005,88.926 414.996,87.918 C414.996,86.442 414.411,85.011 413.43,83.688 C412.44,82.365 411.045,81.105 409.236,79.89 L397.518,71.979 L328.866,25.656 L306.591,10.617 C303.036,8.223 298.41,6.324 293.424,4.992 C288.447,3.66 283.119,2.904 278.196,2.904 C276.135,2.904 274.146,3.039 272.274,3.318 L260.043,5.163 L260.286,6.801 L260.286,5.145 L260.151,5.145 L86.217,31.389 L44.07,37.743 L14.028,42.27 C10.896,42.747 8.421,43.575 6.594,44.808 C5.685,45.429 4.929,46.158 4.398,47.022 C3.867,47.886 3.57,48.876 3.579,49.884 C3.579,51.36 4.164,52.791 5.145,54.105 C6.135,55.437 7.53,56.688 9.339,57.912 L111.984,127.194 C115.539,129.588 120.174,131.487 125.16,132.819 C130.146,134.151 135.474,134.907 140.397,134.907 C142.458,134.907 144.438,134.772 146.301,134.493 L176.352,129.948 L392.289,97.377 L392.037,95.748 L392.037,97.395 L392.181,97.395 L404.547,95.532 L404.304,93.894" fill="#8aff00"/>
    <path d="M392.037,95.748 L176.109,128.31 L44.313,39.381 L86.46,33.027 L260.277,6.801 L260.286,6.801 L291.57,27.933 L359.565,73.815 L392.037,95.748" fill="#8aff00"/>
    <path d="M392.037,95.748 L391.794,94.11 L176.496,126.582 L101.13,75.714 L48.759,40.38 L86.703,34.665 L260.52,8.43 L260.277,6.801 L260.277,8.457 L260.286,8.457 L260.286,6.801 L259.359,8.169 L290.643,29.301 L358.638,75.192 L391.11,97.116 L392.037,95.748 L391.794,94.11 L392.037,95.748 L392.964,94.371 L360.492,72.447 L292.497,26.556 L260.79,5.145 L260.151,5.145 L86.217,31.389 L39.867,38.373 L175.713,130.047 L396.483,96.747 L392.964,94.371 L392.037,95.748" fill="#8aff00"/>
    <path d="M95.613,93.615 C89.169,94.587 79.836,92.607 74.778,89.196 C69.72,85.776 70.845,82.221 77.298,81.249 C83.751,80.277 93.075,82.257 98.133,85.668 C103.191,89.088 102.066,92.643 95.613,93.615" fill="#8aff00"/>
    <path d="M95.613,93.615 L95.37,91.977 C94.353,92.13 93.237,92.211 92.058,92.211 C89.232,92.211 86.082,91.77 83.166,90.987 C80.259,90.213 77.577,89.088 75.705,87.819 C74.751,87.18 74.094,86.559 73.725,86.055 C73.347,85.551 73.266,85.2 73.266,85.011 C73.266,84.876 73.293,84.777 73.383,84.624 C73.518,84.399 73.878,84.048 74.571,83.715 C75.264,83.382 76.263,83.076 77.541,82.887 C78.558,82.734 79.674,82.653 80.853,82.662 C83.679,82.653 86.829,83.094 89.745,83.877 C92.652,84.651 95.343,85.776 97.215,87.045 C98.16,87.684 98.817,88.305 99.186,88.809 C99.564,89.322 99.645,89.673 99.645,89.862 C99.645,89.997 99.618,90.087 99.528,90.24 C99.393,90.465 99.033,90.816 98.34,91.149 C97.647,91.482 96.648,91.788 95.37,91.977 L95.613,93.615 L95.865,95.253 C97.89,94.938 99.528,94.407 100.788,93.552 C101.418,93.129 101.958,92.607 102.345,91.977 C102.741,91.356 102.957,90.609 102.957,89.862 C102.957,88.764 102.516,87.738 101.85,86.838 C101.166,85.929 100.239,85.092 99.06,84.3 C96.747,82.743 93.777,81.528 90.6,80.682 C87.414,79.827 84.012,79.35 80.853,79.35 C79.539,79.35 78.261,79.431 77.046,79.611 C75.021,79.926 73.383,80.457 72.123,81.312 C71.493,81.735 70.953,82.257 70.566,82.887 C70.179,83.517 69.954,84.264 69.954,85.011 C69.954,86.109 70.395,87.126 71.07,88.035 C71.745,88.944 72.672,89.772 73.851,90.564 C76.164,92.121 79.134,93.336 82.32,94.191 C85.497,95.037 88.899,95.514 92.058,95.514 C93.372,95.514 94.65,95.433 95.865,95.253 L95.613,93.615" fill="#000"/>
    <g clip-path="url(#Clip_1)">
      <path d="M117.987,85.722 C129.624,85.641 181.311,91.032 217.743,96.603 C216.06,100.563 222.09,102.012 220.695,105.828 C218.634,111.471 217.239,113.982 225.348,113.829 C228.678,113.766 234.042,115.962 239.982,118.734 C223.152,131.136 197.574,147.372 192.696,148.11 C186.729,149.01 111.759,99.474 111.759,99.474 C111.759,99.474 99.411,85.857 117.987,85.722" fill="#8aff00"/>
      <path d="M117.987,85.722 L117.996,87.378 L118.266,87.378 C121.191,87.378 126.663,87.711 133.71,88.296 C154.878,90.06 190.428,94.101 217.491,98.241 L217.743,96.603 L216.222,95.955 C215.934,96.621 215.79,97.314 215.79,97.971 C215.781,98.997 216.141,99.897 216.555,100.608 C217.194,101.67 217.977,102.453 218.508,103.137 C218.769,103.479 218.967,103.776 219.084,104.037 C219.201,104.298 219.246,104.487 219.255,104.694 C219.246,104.847 219.228,105.018 219.138,105.261 C218.724,106.413 218.319,107.448 218.004,108.42 C217.698,109.392 217.455,110.292 217.446,111.255 C217.446,111.894 217.581,112.605 217.959,113.235 C218.238,113.712 218.643,114.117 219.093,114.414 C219.786,114.864 220.569,115.107 221.469,115.269 C222.378,115.422 223.413,115.494 224.664,115.494 C224.898,115.494 225.132,115.485 225.384,115.485 L225.492,115.485 C226.815,115.476 228.858,115.953 231.234,116.817 C233.628,117.663 236.382,118.878 239.28,120.228 L239.982,118.734 L239.001,117.402 C230.631,123.567 220.047,130.713 210.984,136.392 C206.448,139.236 202.29,141.702 198.987,143.502 C197.34,144.402 195.9,145.122 194.757,145.635 C194.19,145.896 193.695,146.094 193.299,146.238 C192.894,146.382 192.588,146.454 192.453,146.472 L192.516,146.931 L192.516,146.472 L192.453,146.472 L192.516,146.931 L192.516,146.472 L192.399,146.454 C192.084,146.409 191.337,146.175 190.383,145.77 C188.574,145.023 185.955,143.691 182.805,141.963 C171.762,135.897 154.203,124.917 139.434,115.467 C132.045,110.742 125.358,106.395 120.516,103.236 C118.086,101.652 116.124,100.365 114.774,99.474 C113.415,98.592 112.677,98.097 112.668,98.097 L111.759,99.474 L112.983,98.358 L112.704,98.619 L112.983,98.367 L112.983,98.358 L112.704,98.619 L112.983,98.367 C112.965,98.34 112.011,97.278 111.102,95.82 C110.643,95.1 110.202,94.281 109.887,93.471 C109.572,92.661 109.392,91.86 109.392,91.203 C109.392,90.699 109.482,90.285 109.68,89.907 C109.833,89.628 110.04,89.358 110.382,89.079 C110.886,88.665 111.696,88.233 112.938,87.918 C114.189,87.603 115.854,87.396 117.996,87.378 L117.978,84.066 C115.89,84.084 114.144,84.264 112.668,84.579 C110.454,85.065 108.798,85.893 107.673,87.09 C107.106,87.684 106.701,88.359 106.44,89.07 C106.188,89.781 106.08,90.501 106.08,91.203 C106.08,92.454 106.395,93.633 106.827,94.722 C107.466,96.351 108.384,97.782 109.14,98.835 C109.896,99.888 110.499,100.554 110.535,100.59 L110.67,100.743 L110.85,100.851 C110.85,100.86 129.264,113.028 148.578,125.196 C158.244,131.289 168.126,137.373 176.064,141.954 C180.033,144.249 183.516,146.157 186.27,147.516 C187.647,148.2 188.835,148.74 189.843,149.127 C190.347,149.316 190.806,149.469 191.238,149.586 C191.67,149.694 192.066,149.775 192.516,149.784 C192.651,149.784 192.795,149.775 192.939,149.748 C193.416,149.676 193.875,149.541 194.397,149.361 C195.369,149.01 196.53,148.488 197.898,147.804 C202.677,145.419 209.94,141.045 217.788,135.987 C225.627,130.92 234.024,125.178 240.963,120.066 L243.213,118.41 L240.684,117.231 C237.732,115.854 234.906,114.612 232.35,113.694 C229.785,112.785 227.517,112.182 225.492,112.173 L225.321,112.173 C225.087,112.182 224.871,112.182 224.664,112.182 C223.665,112.182 222.864,112.128 222.252,112.038 C221.802,111.975 221.46,111.885 221.235,111.804 C220.875,111.669 220.821,111.57 220.812,111.561 C220.803,111.543 220.767,111.516 220.758,111.255 C220.758,110.922 220.884,110.274 221.154,109.437 C221.424,108.6 221.82,107.574 222.252,106.395 C222.459,105.828 222.558,105.252 222.558,104.694 C222.567,103.668 222.207,102.777 221.784,102.075 C221.145,101.013 220.371,100.239 219.849,99.555 C219.579,99.213 219.381,98.907 219.264,98.655 C219.147,98.385 219.102,98.187 219.093,97.971 C219.102,97.782 219.129,97.566 219.264,97.251 L220.101,95.289 L217.995,94.965 C199.878,92.202 178.035,89.475 159.18,87.45 C149.757,86.433 141.081,85.587 133.989,84.993 C126.888,84.408 121.407,84.066 118.266,84.066 C118.167,84.066 118.068,84.066 117.978,84.066 L117.987,85.722" fill="#8aff00"/>
      <path d="M225.348,113.829 C217.239,113.982 218.634,111.471 220.695,105.828 C222.09,102.012 216.06,100.563 217.743,96.603 C239.469,99.924 255.777,103.308 254.931,105.63 C254.193,107.655 248.109,112.749 239.982,118.734 C234.042,115.962 228.678,113.766 225.348,113.829" fill="#8aff00"/>
      <path d="M225.348,113.829 L225.321,112.173 C225.087,112.182 224.871,112.182 224.664,112.182 C223.665,112.182 222.864,112.128 222.252,112.038 C221.802,111.975 221.46,111.885 221.235,111.804 C220.875,111.669 220.821,111.57 220.812,111.561 C220.803,111.543 220.767,111.516 220.758,111.255 C220.758,110.922 220.884,110.274 221.154,109.437 C221.424,108.6 221.82,107.574 222.252,106.395 C222.459,105.828 222.558,105.252 222.558,104.694 C222.567,103.668 222.207,102.777 221.784,102.075 C221.145,101.013 220.371,100.239 219.849,99.555 C219.579,99.213 219.381,98.907 219.264,98.655 C219.147,98.385 219.102,98.187 219.093,97.971 C219.102,97.782 219.129,97.566 219.264,97.251 L217.743,96.603 L217.491,98.241 C228.057,99.852 237.345,101.49 243.924,102.993 C247.218,103.74 249.837,104.46 251.547,105.099 C252.393,105.414 253.023,105.72 253.32,105.918 L253.473,106.035 L253.491,106.053 L253.5,106.062 L253.923,105.666 L253.41,105.918 C253.455,106.017 253.491,106.053 253.5,106.062 L253.923,105.666 L253.41,105.918 L254.373,105.45 L253.302,105.45 C253.302,105.648 253.356,105.819 253.41,105.918 L254.373,105.45 L253.302,105.45 L254.445,105.45 L253.374,105.063 C253.329,105.18 253.302,105.315 253.302,105.45 L254.445,105.45 L253.374,105.063 C253.374,105.081 253.275,105.279 253.077,105.549 C252.726,106.026 252.096,106.719 251.259,107.52 C248.73,109.968 244.302,113.496 239.001,117.402 L239.982,118.734 L240.684,117.231 C237.732,115.854 234.906,114.612 232.35,113.694 C229.785,112.785 227.517,112.182 225.492,112.173 L225.312,112.173 L225.321,112.173 L225.348,113.829 L225.384,115.485 L225.492,115.485 C226.815,115.476 228.858,115.953 231.234,116.817 C233.628,117.663 236.382,118.878 239.28,120.228 L240.171,120.642 L240.963,120.066 C245.049,117.051 248.622,114.27 251.304,111.948 C252.654,110.787 253.77,109.743 254.634,108.816 C255.066,108.357 255.435,107.925 255.741,107.511 C256.047,107.088 256.299,106.683 256.488,106.197 C256.569,105.963 256.614,105.711 256.614,105.45 C256.614,105.144 256.542,104.847 256.443,104.595 C256.236,104.109 255.939,103.803 255.651,103.542 C255.102,103.074 254.472,102.741 253.689,102.399 C252.33,101.805 250.512,101.238 248.253,100.635 C241.467,98.853 230.649,96.9 217.995,94.965 L216.717,94.776 L216.222,95.955 C215.934,96.621 215.79,97.314 215.79,97.971 C215.781,98.997 216.141,99.897 216.555,100.608 C217.194,101.67 217.977,102.453 218.508,103.137 C218.769,103.479 218.967,103.776 219.084,104.037 C219.201,104.298 219.246,104.487 219.255,104.694 C219.246,104.847 219.228,105.018 219.138,105.252 C218.724,106.413 218.319,107.448 218.004,108.42 C217.698,109.392 217.455,110.292 217.446,111.255 C217.446,111.894 217.581,112.605 217.959,113.235 C218.238,113.712 218.643,114.117 219.093,114.414 C219.786,114.864 220.569,115.107 221.469,115.269 C222.378,115.422 223.413,115.494 224.664,115.494 C224.898,115.494 225.132,115.485 225.384,115.485 L225.348,113.829" fill="#8aff00"/>
      <path d="M201.741,78.81 C206.214,81.834 219.714,84.282 221.523,85.506 C222.324,86.046 231.396,88.422 241.296,90.924 L244.077,89.574 C244.077,89.574 252.276,77.379 245.337,72.699 C242.493,70.773 224.97,68.676 205.305,66.867 C201.048,71.952 198.555,76.659 201.741,78.81" fill="#8aff00"/>
      <path d="M201.741,78.81 L200.814,80.187 C202.164,81.087 203.928,81.825 205.917,82.527 C208.896,83.562 212.352,84.48 215.223,85.245 C216.663,85.632 217.95,85.974 218.931,86.271 C219.426,86.424 219.84,86.559 220.137,86.676 C220.29,86.73 220.416,86.784 220.497,86.82 L220.587,86.865 L220.605,86.883 L220.668,86.775 L220.605,86.874 L220.605,86.883 L220.668,86.775 L220.605,86.874 C220.83,87.027 220.965,87.081 221.127,87.153 C221.424,87.27 221.766,87.396 222.207,87.54 C223.719,88.026 226.338,88.755 229.623,89.628 C232.899,90.501 236.823,91.5 240.891,92.535 L241.476,92.679 L245.202,90.87 L245.454,90.492 C245.481,90.447 246.534,88.881 247.596,86.613 C248.658,84.336 249.765,81.375 249.783,78.351 C249.783,77.064 249.567,75.759 249.009,74.535 C248.451,73.302 247.533,72.177 246.264,71.322 C245.643,70.917 244.968,70.665 244.095,70.386 C242.583,69.918 240.531,69.486 237.993,69.036 C230.379,67.722 218.382,66.408 205.458,65.22 L204.594,65.139 L204.036,65.805 C202.533,67.596 201.228,69.36 200.265,71.061 C199.311,72.762 198.654,74.4 198.645,76.092 C198.636,76.866 198.798,77.658 199.176,78.378 C199.545,79.098 200.112,79.719 200.814,80.187 L201.741,78.81 L202.668,77.442 C202.362,77.235 202.218,77.055 202.11,76.857 C202.011,76.659 201.957,76.434 201.948,76.092 C201.939,75.354 202.326,74.121 203.145,72.69 C203.955,71.259 205.152,69.621 206.574,67.938 L205.305,66.867 L205.152,68.523 C214.971,69.423 224.25,70.395 231.405,71.376 C234.978,71.871 238.02,72.366 240.306,72.852 C241.449,73.086 242.403,73.329 243.114,73.545 C243.825,73.761 244.32,73.995 244.41,74.067 C245.202,74.607 245.67,75.201 245.994,75.903 C246.318,76.605 246.471,77.424 246.471,78.351 C246.48,80.529 245.571,83.175 244.599,85.209 C244.122,86.226 243.645,87.099 243.285,87.711 C243.105,88.017 242.952,88.26 242.853,88.422 L242.736,88.602 L242.709,88.638 L242.7,88.647 L244.077,89.574 L243.357,88.089 L240.576,89.439 L241.296,90.924 L241.701,89.322 C236.76,88.071 232.017,86.856 228.435,85.884 C226.635,85.398 225.132,84.975 224.043,84.642 C223.494,84.48 223.053,84.336 222.747,84.228 C222.603,84.174 222.486,84.129 222.414,84.102 L222.36,84.075 L222.009,84.786 L222.45,84.129 L222.36,84.075 L222.009,84.786 L222.45,84.129 C222.198,83.958 221.964,83.85 221.712,83.742 C221.235,83.535 220.677,83.346 220.029,83.148 C217.743,82.446 214.242,81.6 210.84,80.61 C209.139,80.115 207.474,79.584 206.043,79.044 C204.603,78.513 203.397,77.937 202.668,77.442 L201.741,78.81" fill="#8aff00"/>
      <path d="M241.296,90.924 C231.396,88.422 222.324,86.046 221.523,85.506 C219.714,84.282 206.214,81.834 201.741,78.81 C198.555,76.659 201.048,71.952 205.305,66.867 C177.036,64.275 144.33,62.277 144.33,62.277 L57.48,59.937 L74.409,74.319 L166.902,127.122 L241.296,90.924" fill="#8aff00"/>
      <path d="M241.296,90.924 L241.701,89.322 C236.76,88.071 232.017,86.856 228.435,85.884 C226.635,85.398 225.132,84.975 224.043,84.642 C223.494,84.48 223.053,84.336 222.747,84.228 C222.603,84.174 222.486,84.129 222.414,84.102 L222.36,84.075 L222.009,84.786 L222.45,84.129 L222.36,84.075 L222.009,84.786 L222.45,84.129 C222.198,83.958 221.964,83.85 221.712,83.742 C221.235,83.535 220.677,83.346 220.029,83.148 C217.743,82.446 214.242,81.6 210.84,80.61 C209.139,80.115 207.474,79.584 206.043,79.044 C204.603,78.513 203.397,77.937 202.668,77.442 C202.362,77.235 202.218,77.055 202.11,76.857 C202.011,76.659 201.957,76.434 201.948,76.092 C201.939,75.354 202.326,74.121 203.145,72.69 C203.955,71.259 205.152,69.621 206.574,67.938 L208.608,65.508 L205.458,65.22 C177.153,62.619 144.438,60.63 144.429,60.63 L144.402,60.621 L52.827,58.155 L73.455,75.687 L166.839,128.985 L246.093,90.429 L241.701,89.322 L241.296,90.924 L240.576,89.439 L166.965,125.25 L75.363,72.96 L62.133,61.719 L144.285,63.933 L144.33,62.277 L144.231,63.933 C144.231,63.933 144.735,63.96 145.689,64.023 C152.322,64.437 180.456,66.246 205.152,68.523 L205.305,66.867 L204.036,65.805 C202.533,67.596 201.228,69.36 200.265,71.061 C199.311,72.762 198.654,74.4 198.645,76.092 C198.636,76.866 198.798,77.658 199.176,78.378 C199.545,79.098 200.112,79.719 200.814,80.187 C202.164,81.087 203.928,81.825 205.917,82.527 C208.896,83.562 212.352,84.48 215.223,85.245 C216.663,85.632 217.95,85.974 218.931,86.271 C219.426,86.424 219.84,86.559 220.137,86.676 C220.29,86.73 220.416,86.784 220.497,86.82 L220.587,86.865 L220.605,86.883 L220.668,86.775 L220.605,86.874 L220.605,86.883 L220.668,86.775 L220.605,86.874 C220.83,87.027 220.965,87.081 221.127,87.153 C221.424,87.27 221.766,87.396 222.207,87.54 C223.719,88.026 226.338,88.755 229.623,89.628 C232.899,90.501 236.823,91.5 240.891,92.535 L241.296,90.924 L240.576,89.439 L241.296,90.924" fill="#8aff00"/>
      <path d="M124.224,102.759 C131.811,99.942 159.963,68.289 169.593,55.77 C158.946,53.673 140.955,50.118 130.848,48.039 C115.854,44.97 127.176,44.862 132.702,42.963 C134.97,42.18 133.053,39.462 130.119,36.24 C89.394,32.523 33.819,28.518 28.941,29.256 C22.974,30.156 95.388,80.079 95.388,80.079 C95.388,80.079 112.101,107.25 124.224,102.759" fill="#8aff00"/>
      <path d="M124.224,102.759 L124.8,104.307 C126.042,103.839 127.374,102.966 128.958,101.76 C131.712,99.645 135.141,96.495 138.912,92.751 C150.216,81.537 164.508,65.085 170.907,56.778 L172.536,54.654 L169.908,54.141 C159.27,52.044 141.279,48.498 131.181,46.419 C128.463,45.861 126.636,45.402 125.574,45.051 C125.052,44.88 124.719,44.718 124.647,44.664 L124.629,44.655 L124.215,45.249 L124.791,44.826 C124.683,44.682 124.629,44.655 124.629,44.655 L124.215,45.249 L124.791,44.826 L123.72,45.618 L125.043,45.618 C125.043,45.249 124.89,44.952 124.791,44.826 L123.72,45.618 L125.043,45.618 L123.684,45.618 L124.773,46.446 C124.89,46.293 125.043,45.978 125.043,45.618 L123.684,45.618 L124.773,46.446 L124.026,45.879 L124.557,46.653 C124.584,46.635 124.656,46.59 124.773,46.446 L124.026,45.879 L124.557,46.653 L124.386,46.41 L124.539,46.662 L124.557,46.653 L124.386,46.41 L124.539,46.662 L124.557,46.653 C124.602,46.626 124.764,46.563 124.971,46.5 C125.727,46.257 127.14,45.978 128.652,45.672 C130.173,45.366 131.811,45.015 133.242,44.529 C133.791,44.331 134.349,44.016 134.763,43.494 C135.177,42.981 135.366,42.306 135.357,41.739 C135.348,41.082 135.177,40.524 134.943,39.984 C134.583,39.192 134.07,38.427 133.458,37.617 C132.846,36.816 132.126,35.979 131.343,35.124 L130.902,34.647 L130.263,34.593 C111.543,32.883 89.691,31.11 71.061,29.769 C61.746,29.103 53.232,28.536 46.32,28.14 C39.39,27.744 34.089,27.51 31.101,27.51 C30.57,27.51 30.111,27.519 29.715,27.537 C29.319,27.555 28.995,27.573 28.698,27.618 C28.374,27.672 27.942,27.789 27.537,28.167 C27.339,28.356 27.168,28.608 27.069,28.86 C26.97,29.121 26.934,29.373 26.934,29.589 C26.943,29.913 27.006,30.165 27.087,30.381 C27.24,30.804 27.438,31.11 27.672,31.443 C28.131,32.055 28.743,32.712 29.535,33.486 C31.011,34.917 33.108,36.717 35.673,38.787 C44.637,46.041 59.307,56.688 71.763,65.544 C84.219,74.391 94.443,81.438 94.443,81.447 L95.388,80.079 L93.975,80.952 C94.002,80.988 97.602,86.838 102.732,92.751 C105.306,95.712 108.249,98.691 111.39,100.977 C112.965,102.12 114.585,103.092 116.25,103.794 C117.915,104.487 119.634,104.91 121.371,104.91 C122.523,104.919 123.675,104.721 124.791,104.307 L124.224,102.759 L123.648,101.202 C122.91,101.481 122.163,101.607 121.371,101.607 C120.183,101.607 118.887,101.31 117.528,100.734 C115.152,99.744 112.605,97.917 110.175,95.703 C106.539,92.391 103.164,88.242 100.734,84.948 C99.51,83.292 98.52,81.852 97.845,80.835 C97.503,80.322 97.233,79.908 97.062,79.629 C96.972,79.494 96.9,79.386 96.855,79.314 L96.792,79.215 L96.612,78.918 L96.324,78.72 C96.324,78.72 96.063,78.54 95.577,78.198 C91.914,75.669 75.408,64.221 59.838,52.899 C52.053,47.238 44.493,41.604 38.913,37.149 C36.123,34.917 33.819,32.982 32.262,31.515 C31.488,30.786 30.885,30.165 30.534,29.733 C30.363,29.517 30.246,29.346 30.21,29.274 L30.192,29.247 L29.796,29.427 L30.21,29.31 L30.192,29.247 L29.796,29.427 L30.21,29.31 L29.211,29.589 L30.246,29.589 C30.246,29.454 30.228,29.364 30.21,29.31 L29.211,29.589 L30.246,29.589 L28.932,29.589 L30.156,30.066 C30.228,29.877 30.246,29.715 30.246,29.589 L28.932,29.589 L30.156,30.066 L28.878,29.562 L29.616,30.723 C29.823,30.606 30.057,30.336 30.156,30.066 L28.878,29.562 L29.616,30.723 L29.022,29.796 L29.193,30.894 C29.256,30.876 29.409,30.849 29.616,30.723 L29.022,29.796 L29.193,30.894 C29.283,30.876 29.526,30.858 29.85,30.84 C30.174,30.831 30.597,30.822 31.101,30.822 C33.936,30.822 39.237,31.047 46.131,31.443 C66.813,32.631 101.922,35.322 129.966,37.887 L130.119,36.24 L128.895,37.356 C129.885,38.445 130.74,39.462 131.307,40.281 C131.586,40.695 131.793,41.055 131.91,41.325 C131.973,41.46 132.009,41.568 132.027,41.64 L132.045,41.721 L132.045,41.739 L132.531,41.739 L132.162,41.442 C132.072,41.55 132.036,41.73 132.045,41.739 L132.531,41.739 L132.162,41.442 L132.45,41.667 L132.252,41.361 L132.162,41.442 L132.45,41.667 L132.252,41.361 L132.234,41.37 L132.162,41.397 C130.605,41.937 128.31,42.36 126.393,42.756 C125.43,42.954 124.557,43.152 123.819,43.395 C123.45,43.521 123.108,43.647 122.739,43.89 C122.55,44.016 122.343,44.169 122.136,44.439 C121.929,44.7 121.731,45.132 121.731,45.618 C121.731,45.897 121.794,46.158 121.884,46.383 C122.064,46.788 122.307,47.031 122.523,47.211 C122.901,47.517 123.27,47.697 123.711,47.886 C124.368,48.156 125.196,48.417 126.312,48.705 C127.419,49.002 128.805,49.308 130.515,49.668 C140.64,51.738 158.622,55.293 169.269,57.39 L169.593,55.77 L168.279,54.753 C163.518,60.945 154.086,71.979 144.933,81.771 C140.352,86.667 135.843,91.257 132.036,94.767 C130.128,96.531 128.4,98.016 126.951,99.132 C125.502,100.239 124.296,100.977 123.648,101.202 L124.224,102.759" fill="#8aff00"/>
      <path d="M132.701,42.96 C127.174,44.86 115.856,44.966 130.846,48.043 C140.957,50.118 158.946,53.671 169.593,55.766 C175.337,48.301 177.49,42.132 171.33,40.868 C165.963,39.766 149.767,38.036 130.116,36.24 C133.055,39.462 134.972,42.178 132.701,42.96" fill="#8aff00"/>
      <path d="M132.701,42.96 L132.163,41.394 C130.605,41.934 128.311,42.36 126.395,42.755 C125.429,42.957 124.561,43.148 123.823,43.393 C123.45,43.522 123.111,43.65 122.735,43.891 C122.548,44.016 122.341,44.172 122.133,44.442 C121.928,44.704 121.727,45.136 121.73,45.62 C121.73,45.895 121.794,46.162 121.887,46.379 C122.068,46.789 122.31,47.029 122.523,47.211 C122.903,47.521 123.267,47.696 123.708,47.885 C124.367,48.158 125.199,48.418 126.31,48.709 C127.42,48.998 128.801,49.312 130.513,49.664 C140.636,51.741 158.624,55.295 169.273,57.39 L170.279,57.588 L170.904,56.775 C172.61,54.557 174.025,52.434 175.04,50.446 C176.047,48.454 176.687,46.603 176.697,44.8 C176.697,44.147 176.605,43.497 176.391,42.876 C176.074,41.944 175.457,41.099 174.632,40.491 C173.808,39.878 172.808,39.482 171.663,39.247 C170.248,38.957 168.21,38.64 165.609,38.292 C157.818,37.25 145.018,35.94 130.267,34.592 L126.019,34.203 L128.893,37.355 C129.887,38.443 130.743,39.46 131.307,40.285 C131.589,40.695 131.796,41.057 131.913,41.324 C131.972,41.457 132.008,41.565 132.026,41.637 L132.043,41.717 L132.045,41.736 L132.535,41.736 L132.164,41.442 C132.072,41.546 132.037,41.727 132.045,41.736 L132.535,41.736 L132.164,41.442 L132.452,41.67 L132.25,41.358 L132.164,41.442 L132.452,41.67 L132.25,41.358 L132.234,41.366 L132.163,41.395 L132.701,42.96 L133.24,44.524 C133.794,44.335 134.348,44.015 134.76,43.496 C135.176,42.98 135.363,42.308 135.355,41.736 C135.351,41.08 135.173,40.52 134.94,39.987 C134.585,39.189 134.074,38.425 133.459,37.619 C132.844,36.816 132.122,35.983 131.339,35.125 L130.116,36.24 L129.966,37.888 C139.784,38.785 148.738,39.666 155.897,40.459 C159.477,40.855 162.608,41.23 165.17,41.573 C167.729,41.915 169.729,42.228 170.997,42.489 C172.069,42.71 172.636,43.067 172.932,43.395 C173.083,43.563 173.184,43.736 173.262,43.958 C173.339,44.179 173.387,44.454 173.387,44.8 C173.398,45.751 172.976,47.221 172.091,48.943 C171.212,50.668 169.902,52.651 168.281,54.757 L169.593,55.766 L169.912,54.142 C159.268,52.048 141.278,48.494 131.179,46.421 C128.461,45.865 126.632,45.404 125.577,45.05 C125.055,44.878 124.722,44.719 124.643,44.667 L124.627,44.657 L124.216,45.249 L124.787,44.826 C124.681,44.686 124.627,44.659 124.627,44.657 L124.216,45.249 L124.787,44.826 L123.716,45.62 L125.04,45.62 C125.042,45.252 124.889,44.956 124.787,44.826 L123.716,45.62 L125.04,45.62 L123.685,45.62 L124.77,46.443 C124.888,46.296 125.044,45.982 125.04,45.62 L123.685,45.62 L124.77,46.443 L124.03,45.881 L124.554,46.656 C124.58,46.637 124.657,46.589 124.77,46.443 L124.03,45.881 L124.554,46.656 L124.388,46.411 L124.542,46.664 L124.554,46.656 L124.388,46.411 L124.542,46.664 L124.556,46.656 C124.606,46.63 124.76,46.566 124.971,46.5 C125.727,46.258 127.139,45.98 128.65,45.674 C130.171,45.362 131.812,45.013 133.239,44.525 L132.701,42.96" fill="#8aff00"/>
      <path d="M277.305,44.493 C266.064,46.185 249.81,42.738 240.999,36.789 C232.188,30.84 234.15,24.648 245.391,22.956 C256.623,21.255 272.877,24.702 281.697,30.651 C290.508,36.6 288.537,42.792 277.305,44.493" fill="#8aff00"/>
      <path d="M277.305,44.493 L277.053,42.855 C275.217,43.134 273.21,43.269 271.104,43.269 C266.064,43.269 260.484,42.486 255.309,41.1 C250.125,39.723 245.355,37.734 241.926,35.421 C240.18,34.242 238.947,33.081 238.182,32.055 C237.417,31.02 237.147,30.165 237.147,29.499 C237.147,29.031 237.264,28.626 237.534,28.185 C237.93,27.528 238.758,26.781 240.117,26.133 C241.467,25.485 243.321,24.936 245.634,24.585 C247.479,24.315 249.486,24.171 251.592,24.18 C256.632,24.171 262.212,24.954 267.387,26.34 C272.562,27.717 277.341,29.706 280.77,32.019 C282.507,33.198 283.749,34.359 284.514,35.385 C285.279,36.42 285.549,37.275 285.549,37.941 C285.549,38.409 285.432,38.814 285.162,39.255 C284.766,39.921 283.938,40.659 282.579,41.307 C281.229,41.955 279.375,42.504 277.053,42.855 L277.305,44.493 L277.548,46.122 C280.959,45.609 283.65,44.7 285.621,43.368 C286.602,42.702 287.412,41.919 287.979,40.992 C288.555,40.074 288.861,39.021 288.861,37.941 C288.861,36.375 288.231,34.836 287.169,33.414 C286.098,31.974 284.586,30.606 282.615,29.283 C278.754,26.673 273.687,24.594 268.242,23.145 C262.797,21.687 256.965,20.868 251.592,20.868 C249.342,20.868 247.182,21.012 245.148,21.318 C241.728,21.831 239.046,22.74 237.075,24.072 C236.085,24.738 235.284,25.521 234.717,26.448 C234.141,27.366 233.835,28.419 233.835,29.499 C233.835,31.074 234.465,32.604 235.527,34.035 C236.589,35.466 238.11,36.834 240.072,38.166 C243.942,40.767 249,42.846 254.454,44.304 C259.899,45.753 265.722,46.572 271.104,46.572 C273.345,46.572 275.514,46.428 277.548,46.122 L277.305,44.493" fill="#8aff00"/>
      <path d="M397.905,124.107 L337.038,83.031 C333.483,80.628 326.94,79.242 322.413,79.926 C317.877,80.61 317.085,83.103 320.64,85.506 L322.359,86.658 C325.905,89.052 325.113,91.554 320.586,92.238 C318.327,92.58 315.564,92.4 312.909,91.842 C310.263,91.284 307.734,90.33 305.961,89.133 L281.958,72.933 C278.403,70.539 271.851,69.153 267.324,69.828 C262.797,70.512 262.005,73.014 265.56,75.408 L334.995,122.271 C338.541,124.665 345.093,126.051 349.62,125.367 C354.147,124.692 354.939,122.19 351.393,119.796 L342.825,114.009 C339.27,111.615 340.062,109.122 344.589,108.438 C346.857,108.096 349.62,108.276 352.266,108.834 C354.921,109.392 357.441,110.337 359.223,111.543 L381.507,126.582 C385.053,128.976 391.605,130.362 396.132,129.678 C400.659,128.994 401.451,126.501 397.905,124.107" fill="#8aff00"/>
      <path d="M397.905,124.107 L398.832,122.73 L337.965,81.654 C336.273,80.52 334.149,79.656 331.872,79.044 C329.595,78.441 327.174,78.099 324.906,78.099 C323.961,78.099 323.043,78.153 322.161,78.288 C320.694,78.513 319.479,78.9 318.498,79.557 C318.012,79.89 317.58,80.304 317.265,80.817 C316.95,81.33 316.761,81.951 316.761,82.563 C316.761,83.472 317.121,84.291 317.643,84.984 C318.165,85.677 318.858,86.289 319.713,86.874 L321.432,88.035 C322.071,88.458 322.485,88.863 322.701,89.16 C322.809,89.304 322.863,89.421 322.899,89.493 L322.926,89.601 L322.953,89.601 L322.926,89.592 L322.926,89.601 L322.953,89.601 L322.926,89.592 L322.917,89.601 C322.899,89.646 322.746,89.844 322.314,90.051 C321.891,90.258 321.225,90.465 320.343,90.6 C319.659,90.708 318.894,90.753 318.093,90.753 C316.572,90.753 314.889,90.564 313.251,90.222 C310.776,89.7 308.391,88.791 306.888,87.765 L282.876,71.565 C281.193,70.422 279.069,69.567 276.792,68.955 C274.515,68.343 272.094,68.001 269.826,68.001 C268.881,68.001 267.954,68.064 267.081,68.199 C265.605,68.424 264.399,68.811 263.418,69.468 C262.932,69.792 262.5,70.206 262.185,70.719 C261.861,71.232 261.681,71.853 261.681,72.465 C261.681,73.374 262.041,74.193 262.554,74.886 C263.076,75.579 263.769,76.2 264.633,76.776 L334.068,123.639 C335.76,124.773 337.884,125.637 340.161,126.249 C342.438,126.852 344.85,127.203 347.127,127.203 C348.072,127.203 348.99,127.14 349.872,127.005 C351.339,126.78 352.554,126.393 353.526,125.736 C354.012,125.403 354.444,124.998 354.768,124.485 C355.083,123.972 355.272,123.351 355.272,122.73 C355.263,121.83 354.903,121.011 354.39,120.318 C353.868,119.616 353.175,119.004 352.32,118.428 L343.752,112.641 C343.113,112.209 342.69,111.804 342.474,111.516 C342.366,111.372 342.312,111.255 342.285,111.183 L342.258,111.075 L342.222,111.075 L342.258,111.084 L342.258,111.075 L342.222,111.075 L342.258,111.084 L342.258,111.075 C342.276,111.03 342.438,110.832 342.87,110.625 C343.293,110.418 343.959,110.202 344.841,110.076 C345.525,109.968 346.281,109.914 347.091,109.914 C348.612,109.914 350.295,110.103 351.924,110.445 C354.408,110.967 356.784,111.885 358.296,112.911 L380.58,127.95 C382.272,129.084 384.396,129.948 386.673,130.56 C388.941,131.163 391.362,131.505 393.63,131.514 C394.584,131.514 395.502,131.451 396.384,131.316 C397.851,131.091 399.066,130.704 400.038,130.047 C400.524,129.714 400.956,129.309 401.28,128.787 C401.595,128.283 401.784,127.662 401.775,127.041 C401.775,126.141 401.415,125.322 400.902,124.629 C400.38,123.927 399.687,123.315 398.823,122.73 L397.905,124.107 L396.978,125.475 C397.608,125.907 398.031,126.312 398.247,126.6 C398.355,126.744 398.409,126.861 398.436,126.933 L398.463,127.041 L398.499,127.041 L398.472,127.032 L398.463,127.041 L398.499,127.041 L398.472,127.032 L398.463,127.05 C398.445,127.086 398.292,127.284 397.86,127.491 C397.437,127.707 396.762,127.914 395.889,128.04 C395.205,128.148 394.44,128.202 393.63,128.202 C391.704,128.202 389.526,127.896 387.519,127.365 C385.521,126.825 383.676,126.051 382.434,125.205 L360.15,110.166 C358.107,108.798 355.425,107.817 352.608,107.214 C350.772,106.827 348.882,106.611 347.091,106.611 C346.146,106.611 345.219,106.665 344.346,106.8 C342.879,107.025 341.664,107.412 340.683,108.069 C340.197,108.402 339.765,108.807 339.45,109.329 C339.126,109.833 338.946,110.454 338.946,111.075 C338.946,111.975 339.306,112.794 339.819,113.487 C340.341,114.189 341.034,114.801 341.898,115.386 L350.466,121.164 C351.105,121.596 351.519,122.001 351.735,122.289 C351.843,122.442 351.906,122.55 351.933,122.631 L351.96,122.73 L351.987,122.73 L351.96,122.73 L351.987,122.73 L351.96,122.73 L351.951,122.739 C351.933,122.775 351.78,122.973 351.348,123.18 C350.925,123.396 350.259,123.603 349.377,123.738 C348.693,123.837 347.928,123.891 347.127,123.891 C345.192,123.891 343.014,123.585 341.016,123.054 C339.009,122.523 337.173,121.74 335.922,120.894 L266.487,74.04 C265.848,73.608 265.434,73.203 265.218,72.915 C265.11,72.762 265.047,72.645 265.02,72.573 L264.993,72.465 L264.966,72.465 L264.993,72.474 L264.993,72.465 L264.966,72.465 L264.993,72.474 L264.993,72.465 C265.011,72.429 265.173,72.231 265.605,72.015 C266.028,71.808 266.694,71.601 267.576,71.466 C268.26,71.367 269.016,71.313 269.826,71.313 C271.752,71.313 273.93,71.619 275.937,72.15 C277.944,72.681 279.78,73.455 281.031,74.301 L305.034,90.51 C307.077,91.878 309.759,92.859 312.567,93.462 C314.412,93.849 316.302,94.065 318.093,94.065 C319.038,94.065 319.956,94.002 320.838,93.876 C322.305,93.651 323.52,93.264 324.492,92.607 C324.978,92.274 325.41,91.86 325.734,91.347 C326.049,90.834 326.238,90.213 326.229,89.601 C326.229,88.692 325.869,87.873 325.356,87.18 C324.834,86.487 324.141,85.875 323.286,85.29 L321.567,84.129 C320.928,83.706 320.514,83.301 320.298,83.004 C320.19,82.86 320.127,82.743 320.1,82.671 L320.073,82.563 L320.046,82.563 L320.073,82.572 L320.073,82.563 L320.046,82.563 L320.073,82.572 L320.082,82.563 C320.1,82.518 320.253,82.32 320.685,82.113 C321.108,81.906 321.774,81.69 322.656,81.564 C323.34,81.456 324.105,81.402 324.906,81.402 C326.832,81.402 329.01,81.708 331.017,82.248 C333.024,82.779 334.86,83.553 336.111,84.399 L396.978,125.475 L397.905,124.107" fill="#8aff00"/>
      <path d="M261.153,66.341 C257.078,66.958 251.184,65.707 247.988,63.55 C244.792,61.393 245.505,59.146 249.58,58.532 C253.655,57.917 259.549,59.168 262.745,61.324 C265.941,63.48 265.228,65.727 261.153,66.341" fill="#8aff00"/>
      <path d="M261.153,66.341 L260.905,64.705 C260.298,64.797 259.62,64.844 258.902,64.843 C257.181,64.845 255.236,64.573 253.446,64.094 C251.656,63.62 250.014,62.926 248.913,62.178 C248.352,61.802 247.991,61.448 247.812,61.205 C247.722,61.083 247.676,60.992 247.658,60.942 L247.644,60.897 L247.643,60.896 L247.547,60.905 L247.644,60.905 L247.643,60.896 L247.547,60.905 L247.644,60.905 L247.453,60.905 L247.636,60.958 L247.644,60.905 L247.453,60.905 L247.636,60.958 L247.528,60.927 L247.626,60.984 L247.636,60.958 L247.528,60.927 L247.626,60.984 L247.721,60.884 C247.932,60.687 248.655,60.335 249.826,60.168 C250.433,60.077 251.111,60.03 251.828,60.03 C253.549,60.029 255.494,60.3 257.285,60.779 C259.076,61.254 260.718,61.948 261.819,62.696 C262.38,63.072 262.742,63.426 262.921,63.669 C263.011,63.791 263.056,63.882 263.075,63.931 L263.089,63.976 L263.089,63.978 L263.187,63.968 L263.089,63.968 L263.089,63.978 L263.187,63.968 L263.089,63.968 L263.28,63.968 L263.097,63.915 L263.089,63.968 L263.28,63.968 L263.097,63.915 L263.205,63.946 L263.106,63.89 L263.097,63.915 L263.205,63.946 L263.106,63.89 L263.011,63.989 C262.8,64.186 262.078,64.538 260.906,64.705 L261.4,67.978 C262.74,67.771 263.851,67.42 264.763,66.809 C265.215,66.501 265.621,66.116 265.923,65.628 C266.225,65.145 266.402,64.553 266.399,63.968 C266.397,63.108 266.056,62.338 265.577,61.695 C265.093,61.046 264.455,60.483 263.67,59.952 C262.127,58.915 260.201,58.135 258.139,57.581 C256.078,57.032 253.887,56.721 251.828,56.72 C250.969,56.72 250.132,56.775 249.332,56.895 C247.993,57.102 246.882,57.453 245.97,58.065 C245.517,58.372 245.111,58.758 244.81,59.245 C244.508,59.729 244.331,60.32 244.334,60.905 C244.336,61.765 244.676,62.536 245.155,63.178 C245.639,63.827 246.277,64.39 247.062,64.922 C248.605,65.959 250.531,66.739 252.592,67.292 C254.653,67.841 256.843,68.152 258.902,68.153 C259.762,68.153 260.6,68.099 261.4,67.978 L261.153,66.341" fill="#8aff00"/>
    </g>
    <path d="M392.037,95.748 L391.794,94.11 L176.496,126.582 L101.13,75.714 L48.759,40.38 L86.703,34.665 L260.52,8.43 L260.277,6.801 L260.277,8.457 L260.286,8.457 L260.286,6.801 L259.359,8.169 L290.643,29.301 L358.638,75.192 L391.11,97.116 L392.037,95.748 L391.794,94.11 L392.037,95.748 L392.964,94.371 L360.492,72.447 L292.497,26.556 L260.79,5.145 L260.151,5.145 L86.217,31.389 L39.867,38.373 L175.713,130.047 L396.483,96.747 L392.964,94.371 L392.037,95.748" fill="#8aff00"/>
    <path d="M359.601,114.161 L341.931,116.854 C339.762,117.185 337.737,115.696 337.406,113.526 C337.075,111.358 338.565,109.332 340.734,109.001 L358.403,106.307 C360.572,105.976 362.598,107.466 362.928,109.635 C363.259,111.804 361.769,113.83 359.601,114.161" fill="#8aff00"/>
    <path d="M359.601,114.161 L359.352,112.525 L341.682,115.218 C341.561,115.236 341.443,115.245 341.327,115.245 C340.208,115.245 339.214,114.425 339.042,113.276 C339.023,113.156 339.015,113.038 339.015,112.922 C339.015,112.363 339.219,111.836 339.569,111.424 C339.922,111.012 340.405,110.726 340.984,110.637 L358.652,107.943 C358.773,107.925 358.891,107.916 359.007,107.916 C359.567,107.916 360.093,108.12 360.506,108.471 C360.917,108.823 361.203,109.306 361.292,109.884 C361.31,110.005 361.319,110.123 361.319,110.239 C361.319,111.358 360.497,112.353 359.351,112.525 L359.851,115.797 C362.634,115.368 364.629,112.98 364.629,110.239 C364.629,109.957 364.608,109.672 364.564,109.386 C364.354,107.999 363.644,106.794 362.652,105.951 C361.661,105.106 360.377,104.606 359.007,104.606 C358.724,104.606 358.439,104.627 358.153,104.671 L340.484,107.364 C337.699,107.793 335.705,110.182 335.705,112.922 C335.705,113.205 335.726,113.49 335.77,113.776 C336.198,116.56 338.587,118.555 341.327,118.555 C341.609,118.555 341.895,118.534 342.181,118.49 L359.85,115.797 L359.601,114.161" fill="#8aff00"/>
    <path d="M48.801,92.879 L79.818,112.88" fill="#8aff00"/>
    <path d="M47.904,94.27 L78.921,114.271 C79.69,114.767 80.714,114.545 81.209,113.777 C81.705,113.009 81.483,111.985 80.715,111.489 L49.698,91.489 C48.929,90.993 47.905,91.214 47.41,91.983 C46.915,92.751 47.136,93.775 47.904,94.27" fill="#8aff00"/>
    <path d="M134.151,97.917 L138.453,101.229 L173.535,65.805 L164.598,64.815 L134.151,97.917" fill="#8aff00"/>
    <path d="M106.534,32.528 C105.313,32.427 104.09,32.326 102.866,32.225 L259.887,8.526 L288.722,28.004 L280.889,28.198 C277.299,26.093 272.91,24.387 268.242,23.145 C262.797,21.687 256.965,20.868 251.592,20.868 C249.342,20.868 247.182,21.012 245.148,21.318 C241.728,21.831 239.046,22.74 237.075,24.072 C236.085,24.738 235.284,25.521 234.717,26.448 C234.164,27.328 233.861,28.333 233.837,29.367 L106.534,32.528" fill="#0b6e13"/>
    <path d="M99.741,32.697 L102.866,32.225 C104.09,32.326 105.313,32.427 106.534,32.528 L99.741,32.697" fill="#0b6e13"/>
    <path d="M237.156,29.284 C237.188,28.904 237.306,28.557 237.534,28.185 C237.93,27.528 238.758,26.781 240.117,26.133 C241.467,25.485 243.321,24.936 245.634,24.585 C247.424,24.323 249.368,24.18 251.406,24.18 C251.468,24.18 251.53,24.18 251.592,24.18 C251.621,24.18 251.649,24.18 251.678,24.18 C256.695,24.18 262.241,24.962 267.387,26.34 C269.561,26.918 271.665,27.605 273.628,28.379 L237.156,29.284" fill="#0b6e13"/>
    <path d="M233.837,29.367 C233.861,28.333 234.164,27.328 234.717,26.448 C235.284,25.521 236.085,24.738 237.075,24.072 C239.046,22.74 241.728,21.831 245.148,21.318 C247.182,21.012 249.342,20.868 251.592,20.868 C256.965,20.868 262.797,21.687 268.242,23.145 C272.91,24.387 277.299,26.093 280.889,28.198 L273.628,28.379 C271.665,27.605 269.561,26.918 267.387,26.34 C262.241,24.962 256.695,24.18 251.678,24.18 C251.649,24.18 251.621,24.18 251.592,24.18 C251.53,24.18 251.468,24.18 251.406,24.18 C249.368,24.18 247.424,24.323 245.634,24.585 C243.321,24.936 241.467,25.485 240.117,26.133 C238.758,26.781 237.93,27.528 237.534,28.185 C237.306,28.557 237.188,28.904 237.156,29.284 L233.837,29.367" fill="#0b6e13"/>
    <path d="M294.431,27.861 L292.497,26.556 L264.73,7.806 L272.769,6.594 C274.443,6.342 276.279,6.216 278.196,6.216 C282.786,6.216 287.862,6.927 292.569,8.187 C297.285,9.438 301.623,11.256 304.737,13.362 L325.087,27.095 L294.431,27.861" fill="#E5E5E0"/>
    <path d="M325.087,27.095 L304.737,13.362 C301.623,11.256 297.285,9.438 292.569,8.187 C287.862,6.927 282.786,6.216 278.196,6.216 C276.279,6.216 274.443,6.342 272.769,6.594 L264.73,7.806 L262.703,6.437 L272.526,4.956 C274.298,4.689 276.206,4.561 278.191,4.561 C287.703,4.561 299,7.488 305.664,11.985 L327.948,27.024 L325.087,27.095" fill="#090A08"/>
    <path d="M86.46,33.027 L260.277,6.801 L260.286,6.801 L262.703,6.437 L292.497,26.556 L294.431,27.861 L291.57,27.933 L288.722,28.004 L259.887,8.526 L102.866,32.225 L99.741,32.697 L86.46,33.027" fill="#090A08"/>
    <path d="M140.397,131.595 C135.816,131.595 130.731,130.884 126.015,129.624 C121.299,128.364 116.952,126.555 113.838,124.449 L44.702,77.792 L97.303,77.128 L99.276,78.459 L171.664,127.314 L145.806,131.217 C144.132,131.469 142.314,131.595 140.397,131.595 M80.853,79.35 C79.539,79.35 78.261,79.431 77.046,79.611 C75.021,79.926 73.383,80.457 72.123,81.312 C71.493,81.735 70.953,82.257 70.566,82.887 C70.179,83.517 69.954,84.264 69.954,85.011 C69.954,86.109 70.395,87.126 71.07,88.035 C71.745,88.944 72.672,89.772 73.851,90.564 C76.164,92.121 79.134,93.336 82.32,94.191 C85.497,95.037 88.899,95.514 92.058,95.514 C93.372,95.514 94.65,95.433 95.865,95.253 C97.89,94.938 99.528,94.407 100.788,93.552 C101.418,93.129 101.958,92.607 102.345,91.977 C102.741,91.356 102.957,90.609 102.957,89.862 C102.957,88.764 102.516,87.738 101.85,86.838 C101.166,85.929 100.239,85.092 99.06,84.3 C96.747,82.743 93.777,81.528 90.6,80.682 C87.414,79.827 84.012,79.35 80.853,79.35" fill="#FFFFFE"/>
    <path d="M140.4,133.249 C130.891,133.249 119.578,130.318 112.911,125.826 L41.802,77.829 L44.702,77.792 L113.838,124.449 C116.952,126.555 121.299,128.364 126.015,129.624 C130.731,130.884 135.816,131.595 140.397,131.595 C142.314,131.595 144.132,131.469 145.806,131.217 L171.664,127.314 L173.683,128.677 L146.049,132.855 C144.284,133.122 142.38,133.249 140.4,133.249" fill="#1D201F"/>
    <path d="M92.058,92.211 C89.232,92.211 86.082,91.77 83.166,90.987 C80.259,90.213 77.577,89.088 75.705,87.819 C74.751,87.18 74.094,86.559 73.725,86.055 C73.347,85.551 73.266,85.2 73.266,85.011 C73.266,84.876 73.293,84.777 73.383,84.624 C73.518,84.399 73.878,84.048 74.571,83.715 C75.264,83.382 76.263,83.076 77.541,82.887 C78.507,82.742 79.562,82.661 80.676,82.661 C80.735,82.661 80.794,82.662 80.853,82.662 C80.881,82.662 80.91,82.662 80.938,82.662 C83.742,82.662 86.858,83.102 89.745,83.877 C92.652,84.651 95.343,85.776 97.215,87.045 C98.16,87.684 98.817,88.305 99.186,88.809 C99.564,89.322 99.645,89.673 99.645,89.862 C99.645,89.997 99.618,90.087 99.528,90.24 C99.393,90.465 99.033,90.816 98.34,91.149 C97.647,91.482 96.648,91.788 95.37,91.977 C94.353,92.13 93.237,92.211 92.058,92.211" fill="#FFFFFE"/>
    <path d="M92.058,95.514 C88.899,95.514 85.497,95.037 82.32,94.191 C79.134,93.336 76.164,92.121 73.851,90.564 C72.672,89.772 71.745,88.944 71.07,88.035 C70.395,87.126 69.954,86.109 69.954,85.011 C69.954,84.264 70.179,83.517 70.566,82.887 C70.953,82.257 71.493,81.735 72.123,81.312 C73.383,80.457 75.021,79.926 77.046,79.611 C78.261,79.431 79.539,79.35 80.853,79.35 C84.012,79.35 87.414,79.827 90.6,80.682 C93.777,81.528 96.747,82.743 99.06,84.3 C100.239,85.092 101.166,85.929 101.85,86.838 C102.516,87.738 102.957,88.764 102.957,89.862 C102.957,90.609 102.741,91.356 102.345,91.977 C101.958,92.607 101.418,93.129 100.788,93.552 C99.528,94.407 97.89,94.938 95.865,95.253 C94.65,95.433 93.372,95.514 92.058,95.514 M80.676,82.661 C79.562,82.661 78.507,82.742 77.541,82.887 C76.263,83.076 75.264,83.382 74.571,83.715 C73.878,84.048 73.518,84.399 73.383,84.624 C73.293,84.777 73.266,84.876 73.266,85.011 C73.266,85.2 73.347,85.551 73.725,86.055 C74.094,86.559 74.751,87.18 75.705,87.819 C77.577,89.088 80.259,90.213 83.166,90.987 C86.082,91.77 89.232,92.211 92.058,92.211 C93.237,92.211 94.353,92.13 95.37,91.977 C96.648,91.788 97.647,91.482 98.34,91.149 C99.033,90.816 99.393,90.465 99.528,90.24 C99.618,90.087 99.645,89.997 99.645,89.862 C99.645,89.673 99.564,89.322 99.186,88.809 C98.817,88.305 98.16,87.684 97.215,87.045 C95.343,85.776 92.652,84.651 89.745,83.877 C86.858,83.102 83.742,82.662 80.938,82.662 C80.91,82.662 80.881,82.662 80.853,82.662 C80.794,82.662 80.735,82.661 80.676,82.661" fill="#1D201F"/>
    <path d="M246.259,116.06 C248.159,114.58 249.861,113.197 251.304,111.948 C252.654,110.787 253.77,109.743 254.634,108.816 C255.066,108.357 255.435,107.925 255.741,107.511 C256.047,107.088 256.299,106.683 256.488,106.197 C256.569,105.963 256.614,105.711 256.614,105.45 C256.614,105.144 256.542,104.847 256.443,104.595 C256.236,104.109 255.939,103.803 255.651,103.542 C255.102,103.074 254.472,102.741 253.689,102.399 C252.33,101.805 250.512,101.238 248.253,100.635 C244.158,99.56 238.593,98.422 232.044,97.263 L241.471,92.678 L241.476,92.679 L245.202,90.87 L245.209,90.859 L246.093,90.429 L245.578,90.299 C245.89,89.812 246.74,88.441 247.596,86.613 C248.658,84.336 249.765,81.375 249.783,78.351 C249.783,77.297 249.638,76.231 249.279,75.208 L262.673,75.039 C263.18,75.671 263.833,76.243 264.633,76.776 L308.851,106.62 L246.259,116.06 M362.884,98.47 L337.965,81.654 C336.273,80.52 334.149,79.656 331.872,79.044 C329.595,78.441 327.174,78.099 324.906,78.099 C323.961,78.099 323.043,78.153 322.161,78.288 C320.694,78.513 319.479,78.9 318.498,79.557 C318.012,79.89 317.58,80.304 317.265,80.817 C316.95,81.33 316.761,81.951 316.761,82.563 C316.761,83.472 317.121,84.291 317.643,84.984 C318.165,85.677 318.858,86.289 319.713,86.874 L321.432,88.035 C322.071,88.458 322.485,88.863 322.701,89.16 C322.809,89.304 322.863,89.421 322.899,89.493 L322.924,89.594 L322.917,89.601 C322.899,89.646 322.746,89.844 322.314,90.051 C321.891,90.258 321.225,90.465 320.343,90.6 C319.659,90.708 318.894,90.753 318.093,90.753 C316.572,90.753 314.889,90.564 313.251,90.222 C310.776,89.7 308.391,88.791 306.888,87.765 L287.559,74.724 L356.652,73.852 L358.638,75.192 L387.596,94.743 L362.884,98.47" fill="#BFDDEB"/>
    <path d="M176.496,126.582 L174.52,125.248 L218.881,103.667 C218.963,103.798 219.032,103.921 219.084,104.037 C219.201,104.298 219.246,104.487 219.255,104.694 C219.246,104.847 219.228,105.018 219.138,105.252 C218.75,106.34 218.37,107.318 218.064,108.237 C218.044,108.298 218.024,108.359 218.004,108.42 C217.698,109.392 217.455,110.292 217.446,111.255 C217.446,111.894 217.581,112.605 217.959,113.235 C218.238,113.712 218.643,114.117 219.093,114.414 C219.786,114.864 220.569,115.107 221.469,115.269 C222.378,115.422 223.413,115.494 224.664,115.494 C224.898,115.494 225.132,115.485 225.384,115.485 L225.492,115.485 C225.504,115.485 225.517,115.485 225.529,115.485 C226.853,115.485 228.88,115.961 231.234,116.817 C232.125,117.132 233.065,117.498 234.044,117.902 L176.496,126.582" fill="#89AEC3"/>
    <path d="M239.791,116.817 C237.163,115.606 234.647,114.519 232.35,113.694 C229.785,112.785 227.517,112.182 225.492,112.173 L225.312,112.173 L225.321,112.173 C225.087,112.182 224.871,112.182 224.664,112.182 C223.665,112.182 222.864,112.128 222.252,112.038 C221.802,111.975 221.46,111.885 221.235,111.804 C220.875,111.669 220.821,111.57 220.812,111.561 C220.803,111.543 220.767,111.516 220.758,111.255 C220.758,110.922 220.884,110.274 221.154,109.437 C221.424,108.6 221.82,107.574 222.252,106.395 C222.459,105.828 222.558,105.252 222.558,104.694 C222.566,103.735 222.252,102.894 221.866,102.215 L226.938,99.748 C233.574,100.858 239.392,101.958 243.924,102.993 C247.218,103.74 249.837,104.46 251.547,105.099 C252.133,105.317 252.616,105.531 252.956,105.708 C252.59,106.174 252.007,106.804 251.259,107.52 C248.857,109.845 244.741,113.145 239.791,116.817" fill="#FFFFFE"/>
    <path d="M234.044,117.902 C233.065,117.498 232.125,117.132 231.234,116.817 C228.88,115.961 226.853,115.485 225.529,115.485 C225.517,115.485 225.504,115.485 225.492,115.485 L225.384,115.485 C225.132,115.485 224.898,115.494 224.664,115.494 C223.413,115.494 222.378,115.422 221.469,115.269 C220.569,115.107 219.786,114.864 219.093,114.414 C218.643,114.117 218.238,113.712 217.959,113.235 C217.581,112.605 217.446,111.894 217.446,111.255 C217.455,110.292 217.698,109.392 218.004,108.42 C218.024,108.359 218.044,108.298 218.064,108.237 C218.37,107.318 218.75,106.34 219.138,105.252 C219.228,105.018 219.246,104.847 219.255,104.694 C219.246,104.487 219.201,104.298 219.084,104.037 C219.032,103.921 218.963,103.798 218.881,103.667 L221.866,102.215 C222.252,102.894 222.566,103.735 222.558,104.694 C222.558,105.252 222.459,105.828 222.252,106.395 C221.82,107.574 221.424,108.6 221.154,109.437 C220.884,110.274 220.758,110.922 220.758,111.255 C220.767,111.516 220.803,111.543 220.812,111.561 C220.821,111.57 220.875,111.669 221.235,111.804 C221.46,111.885 221.802,111.975 222.252,112.038 C222.864,112.128 223.665,112.182 224.664,112.182 C224.871,112.182 225.087,112.182 225.321,112.173 L225.312,112.173 L225.492,112.173 C227.517,112.182 229.785,112.785 232.35,113.694 C234.647,114.519 237.163,115.606 239.791,116.817 C244.741,113.145 248.857,109.845 251.259,107.52 C252.007,106.804 252.59,106.174 252.956,105.708 C252.616,105.531 252.133,105.317 251.547,105.099 C249.837,104.46 247.218,103.74 243.924,102.993 C239.392,101.958 233.574,100.858 226.938,99.748 L232.044,97.263 C238.593,98.422 244.158,99.56 248.253,100.635 C250.512,101.238 252.33,101.805 253.689,102.399 C254.472,102.741 255.102,103.074 255.651,103.542 C255.939,103.803 256.236,104.109 256.443,104.595 C256.542,104.847 256.614,105.144 256.614,105.45 C256.614,105.711 256.569,105.963 256.488,106.197 C256.299,106.683 256.047,107.088 255.741,107.511 C255.435,107.925 255.066,108.357 254.634,108.816 C253.77,109.743 252.654,110.787 251.304,111.948 C249.861,113.197 248.159,114.58 246.259,116.06 L234.044,117.902 M254.445,105.45 L254.445,105.45" fill="#1D201F"/>
    <path d="M241.12,89.175 C236.389,87.976 231.876,86.818 228.435,85.884 C226.635,85.398 225.132,84.975 224.043,84.642 C223.494,84.48 223.053,84.336 222.747,84.228 C222.603,84.174 222.486,84.129 222.414,84.102 L222.392,84.091 C222.162,83.942 221.944,83.842 221.712,83.742 C221.235,83.535 220.677,83.346 220.029,83.148 C217.743,82.446 214.242,81.6 210.84,80.61 C209.139,80.115 207.474,79.584 206.043,79.044 C204.603,78.513 203.397,77.937 202.668,77.442 C202.362,77.235 202.218,77.055 202.11,76.857 C202.011,76.659 201.957,76.434 201.948,76.092 C201.947,76.004 201.952,75.908 201.962,75.806 L245.628,75.254 C245.769,75.46 245.889,75.676 245.994,75.903 C246.318,76.605 246.471,77.424 246.471,78.351 C246.48,80.529 245.571,83.175 244.599,85.209 C244.122,86.226 243.645,87.099 243.285,87.711 C243.147,87.946 243.025,88.143 242.93,88.296 L241.12,89.175" fill="#FFFFFE"/>
    <path d="M241.476,92.679 L241.471,92.678 L245.209,90.859 L245.202,90.87 L241.476,92.679 M241.296,90.924 L241.296,90.924 L241.701,89.322 C236.76,88.071 232.017,86.856 228.435,85.884 C226.635,85.398 225.132,84.975 224.043,84.642 C223.494,84.48 223.053,84.336 222.747,84.228 C222.603,84.174 222.486,84.129 222.414,84.102 L222.392,84.091 C222.162,83.942 221.944,83.842 221.712,83.742 C221.235,83.535 220.677,83.346 220.029,83.148 C217.743,82.446 214.242,81.6 210.84,80.61 C209.139,80.115 207.474,79.584 206.043,79.044 C204.603,78.513 203.397,77.937 202.668,77.442 C203.397,77.937 204.603,78.513 206.043,79.044 C207.474,79.584 209.139,80.115 210.84,80.61 C214.242,81.6 217.743,82.446 220.029,83.148 C220.677,83.346 221.235,83.535 221.712,83.742 C221.944,83.842 222.162,83.942 222.392,84.091 L222.414,84.102 C222.486,84.129 222.603,84.174 222.747,84.228 C223.053,84.336 223.494,84.48 224.043,84.642 C225.132,84.975 226.635,85.398 228.435,85.884 C231.876,86.818 236.389,87.976 241.12,89.175 L242.93,88.296 C243.025,88.143 243.147,87.946 243.285,87.711 C243.645,87.099 244.122,86.226 244.599,85.209 C245.571,83.175 246.48,80.529 246.471,78.351 C246.471,77.424 246.318,76.605 245.994,75.903 C245.889,75.676 245.769,75.46 245.628,75.254 L249.279,75.208 C249.638,76.231 249.783,77.297 249.783,78.351 C249.765,81.375 248.658,84.336 247.596,86.613 C246.74,88.441 245.89,89.812 245.578,90.299 L241.701,89.322 L241.296,90.924 M244.077,89.574 L244.077,89.574" fill="#1D201F"/>
    <path d="M171.357,123.113 L138.645,101.035 L163.145,76.296 L198.651,75.847 C198.648,75.929 198.645,76.01 198.645,76.092 C198.636,76.866 198.798,77.658 199.176,78.378 C199.545,79.098 200.112,79.719 200.814,80.187 C202.164,81.087 203.928,81.825 205.917,82.527 C208.896,83.562 212.352,84.48 215.223,85.245 C216.663,85.632 217.95,85.974 218.931,86.271 C219.426,86.424 219.84,86.559 220.137,86.676 C220.29,86.73 220.416,86.784 220.497,86.82 L220.587,86.865 L220.605,86.883 L220.609,86.876 C220.831,87.027 220.966,87.081 221.127,87.153 C221.424,87.27 221.766,87.396 222.207,87.54 C223.719,88.026 226.338,88.755 229.623,89.628 C231.7,90.182 234.039,90.786 236.508,91.418 L171.357,123.113" fill="#B0C9DC"/>
    <path d="M174.52,125.248 L171.357,123.113 L236.508,91.418 C234.039,90.786 231.7,90.182 229.623,89.628 C226.338,88.755 223.719,88.026 222.207,87.54 C221.766,87.396 221.424,87.27 221.127,87.153 C220.966,87.081 220.831,87.027 220.609,86.876 L220.605,86.883 L220.587,86.865 L220.497,86.82 C220.416,86.784 220.29,86.73 220.137,86.676 C219.84,86.559 219.426,86.424 218.931,86.271 C217.95,85.974 216.663,85.632 215.223,85.245 C212.352,84.48 208.896,83.562 205.917,82.527 C203.928,81.825 202.164,81.087 200.814,80.187 C200.112,79.719 199.545,79.098 199.176,78.378 C198.798,77.658 198.636,76.866 198.645,76.092 C198.645,76.01 198.648,75.929 198.651,75.847 L201.962,75.806 C201.952,75.908 201.947,76.004 201.948,76.092 C201.957,76.434 202.011,76.659 202.11,76.857 C202.218,77.055 202.362,77.235 202.668,77.442 C203.397,77.937 204.603,78.513 206.043,79.044 C207.474,79.584 209.139,80.115 210.84,80.61 C214.242,81.6 217.743,82.446 220.029,83.148 C220.677,83.346 221.235,83.535 221.712,83.742 C221.944,83.842 222.162,83.942 222.392,84.091 L222.414,84.102 C222.486,84.129 222.603,84.174 222.747,84.228 C223.053,84.336 223.494,84.48 224.043,84.642 C225.132,84.975 226.635,85.398 228.435,85.884 C232.017,86.856 236.76,88.071 241.701,89.322 L241.296,90.924 L241.701,89.322 L245.578,90.299 L246.093,90.429 L245.209,90.859 L241.471,92.678 L232.044,97.263 L226.938,99.748 L174.52,125.248" fill="#1D201F"/>
    <path d="M313.687,105.89 L267.87,74.973 L281.766,74.798 L305.034,90.51 C307.077,91.878 309.759,92.859 312.567,93.462 C314.412,93.849 316.302,94.065 318.093,94.065 C319.038,94.065 319.956,94.002 320.838,93.876 C322.305,93.651 323.52,93.264 324.492,92.607 C324.978,92.274 325.41,91.86 325.734,91.347 C326.049,90.834 326.238,90.213 326.229,89.601 C326.229,88.692 325.869,87.873 325.356,87.18 C324.834,86.487 324.141,85.875 323.286,85.29 L321.567,84.129 C320.928,83.706 320.514,83.301 320.298,83.004 C320.19,82.86 320.127,82.743 320.1,82.671 L320.075,82.57 L320.082,82.563 C320.1,82.518 320.253,82.32 320.685,82.113 C321.108,81.906 321.774,81.69 322.656,81.564 C323.34,81.456 324.105,81.402 324.906,81.402 C326.832,81.402 329.01,81.708 331.017,82.248 C333.024,82.779 334.86,83.553 336.111,84.399 L358.044,99.2 L313.687,105.89" fill="#FFFFFE"/>
    <path d="M308.851,106.62 L308.851,106.62 L264.633,76.776 C263.833,76.243 263.18,75.671 262.673,75.039 L267.87,74.973 L313.687,105.89 L308.851,106.62 M358.044,99.2 L336.111,84.399 C334.86,83.553 333.024,82.779 331.017,82.248 C329.01,81.708 326.832,81.402 324.906,81.402 C324.105,81.402 323.34,81.456 322.656,81.564 C321.774,81.69 321.108,81.906 320.685,82.113 C320.253,82.32 320.1,82.518 320.082,82.563 L320.075,82.57 L320.1,82.671 C320.127,82.743 320.19,82.86 320.298,83.004 C320.514,83.301 320.928,83.706 321.567,84.129 L323.286,85.29 C324.141,85.875 324.834,86.487 325.356,87.18 C325.869,87.873 326.229,88.692 326.229,89.601 C326.238,90.213 326.049,90.834 325.734,91.347 C325.41,91.86 324.978,92.274 324.492,92.607 C323.52,93.264 322.305,93.651 320.838,93.876 C319.956,94.002 319.038,94.065 318.093,94.065 C316.302,94.065 314.412,93.849 312.567,93.462 C309.759,92.859 307.077,91.878 305.034,90.51 L281.766,74.798 L287.559,74.724 L306.888,87.765 C308.391,88.791 310.776,89.7 313.251,90.222 C314.889,90.564 316.572,90.753 318.093,90.753 C318.894,90.753 319.659,90.708 320.343,90.6 C321.225,90.465 321.891,90.258 322.314,90.051 C322.746,89.844 322.899,89.646 322.917,89.601 L322.924,89.594 L322.899,89.493 C322.863,89.421 322.809,89.304 322.701,89.16 C322.485,88.863 322.071,88.458 321.432,88.035 L319.713,86.874 C318.858,86.289 318.165,85.677 317.643,84.984 C317.121,84.291 316.761,83.472 316.761,82.563 C316.761,81.951 316.95,81.33 317.265,80.817 C317.58,80.304 318.012,79.89 318.498,79.557 C319.479,78.9 320.694,78.513 322.161,78.288 C323.043,78.153 323.961,78.099 324.906,78.099 C327.174,78.099 329.595,78.441 331.872,79.044 C334.149,79.656 336.273,80.52 337.965,81.654 L362.884,98.47 L358.044,99.2 M322.953,89.601 L322.953,89.601" fill="#1D201F"/>
    <path d="M135.04,98.601 L133.723,97.712 C135.316,96.259 137.023,94.624 138.807,92.855 L134.151,97.917 L135.04,98.601" fill="#B0C9DC"/>
    <path d="M130.897,95.805 L103.116,77.054 L149.814,76.464 C148.196,78.25 146.56,80.03 144.933,81.771 C140.352,86.667 135.843,91.257 132.036,94.767 C131.649,95.125 131.269,95.471 130.897,95.805" fill="#3D91B2"/>
    <path d="M133.723,97.712 L130.897,95.805 C131.269,95.471 131.649,95.125 132.036,94.767 C135.843,91.257 140.352,86.667 144.933,81.771 C146.56,80.03 148.196,78.25 149.814,76.464 L153.931,76.412 L138.807,92.855 C137.023,94.624 135.316,96.259 133.723,97.712" fill="#1D201F"/>
    <path d="M392.436,94.014 L362.465,73.779 L393.69,73.392 L395.664,74.724 L407.382,82.635 C408.966,83.697 410.091,84.75 410.775,85.668 C411.459,86.595 411.693,87.351 411.693,87.918 C411.684,88.314 411.594,88.647 411.36,89.034 C411.009,89.61 410.28,90.267 409.056,90.852 C407.841,91.437 406.158,91.941 404.052,92.256 L392.436,94.014" fill="#FFFFFE"/>
    <path d="M394.463,95.383 L392.964,94.371 L392.436,94.014 L404.052,92.256 C406.158,91.941 407.841,91.437 409.056,90.852 C410.28,90.267 411.009,89.61 411.36,89.034 C411.594,88.647 411.684,88.314 411.693,87.918 C411.693,87.351 411.459,86.595 410.775,85.668 C410.091,84.75 408.966,83.697 407.382,82.635 L395.664,74.724 L393.69,73.392 L396.591,73.356 L408.309,81.258 C416.364,86.685 414.564,92.337 404.304,93.894 L394.463,95.383" fill="#1D201F"/>
    <path d="M173.683,128.677 L99.276,78.459 L97.303,77.128 L100.203,77.091 L103.116,77.054 L135.04,98.601 L138.453,101.229 L138.645,101.035 L176.496,126.582 L234.044,117.902 L246.259,116.06 L308.851,106.62 L313.687,105.89 L387.596,94.743 L358.638,75.192 L356.652,73.852 L359.565,73.815 L362.465,73.779 L392.964,94.371 L392.037,95.748 L392.964,94.371 L394.463,95.383 L392.055,95.748 L392.037,95.748 L176.109,128.31 L173.683,128.677" fill="#1D201F"/>
    <path d="M138.453,101.229 L135.04,98.601 L134.151,97.917 L153.931,76.412 L163.145,76.296 L138.645,101.035 L138.453,101.229" fill="#81A1B8"/>
  </g>
</svg>
